<svg width="400" height="400" xmlns="http://www.w3.org/2000/svg" xmlns:xlink="http://www.w3.org/1999/xlink" version="1.0">
 <defs id="defs4">
  <filter id="filter3315">
   <feGaussianBlur stdDeviation="3.7" id="feGaussianBlur3317"/>
  </filter>
  <linearGradient id="linearGradient3263">
   <stop offset="0" id="stop3265" stop-color="#f7f7f7"/>
   <stop offset="1" id="stop3267" stop-color="#e1e1e1"/>
  </linearGradient>
  <linearGradient id="linearGradient3153">
   <stop offset="0" id="stop3155" stop-color="#ffffff"/>
   <stop offset="1" id="stop3157" stop-color="#ffffff" stop-opacity="0"/>
  </linearGradient>
  <radialGradient xlink:href="#linearGradient3153" id="radialGradient3328" gradientUnits="userSpaceOnUse" gradientTransform="matrix(-0.7669316530227661,0.7669316530227661,-1.7299270629882812,-1.7299270629882812,624.6666870117188,180.72177124023438)" cx="289.42923" cy="209.66924" fx="289.42923" fy="209.66924" r="92.5"/>
  <radialGradient xlink:href="#linearGradient3263" id="radialGradient3349" gradientUnits="userSpaceOnUse" gradientTransform="matrix(0,2.5337095260620117,-0.8819469809532166,0,370.0779724121094,-304.9208679199219)" cx="199.28125" cy="192.84375" fx="199.28125" fy="192.84375" r="53.6875"/>
 </defs>
 <metadata id="metadata7">image/svg+xml</metadata>
 <g>
  <title>Layer 1</title>
  <rect id="svg_2" height="400" width="400" y="0" x="0" stroke="#000" fill="#242424"/>
  <g id="svg_1" stroke="null">
   <use x="27.47743" y="4" xlink:href="#path3191" id="use31" width="100%" height="100%" fill-opacity="0.5" filter="url(#filter3315)" stroke="null" transform="matrix(0.881947 0 0 0.881947 -20.069 1.77079)"/>
   <path id="path3191" d="m200,36.83978c-90.06444,0 -163.16021,73.09578 -163.16021,163.16021c0,90.06444 73.09578,163.16021 163.16021,163.16021c90.06444,0 163.16021,-73.09578 163.16021,-163.16021c0,-90.06444 -73.09578,-163.16021 -163.16021,-163.16021zm0,158.58511c2.52806,0 4.57509,2.04704 4.5751,4.5751c0,2.52806 -2.04704,4.57509 -4.5751,4.5751c-2.52806,0 -4.57509,-2.04704 -4.5751,-4.5751c0,-2.52806 2.04704,-4.57509 4.5751,-4.5751z" stroke="null"/>
   <path id="path3271" d="m200,140.60637c-32.77249,0 -59.39363,26.62113 -59.39363,59.39363c0,32.77249 26.62113,59.39363 59.39363,59.39363c32.77249,0 59.39363,-26.62113 59.39363,-59.39363c0,-32.77249 -26.62113,-59.39363 -59.39363,-59.39363zm0,55.47998c2.16437,0 3.91364,1.74927 3.91364,3.91364c0,2.16437 -1.74927,3.91364 -3.91364,3.91364c-2.16437,0 -3.91364,-1.74927 -3.91364,-3.91364c0,-2.16437 1.74927,-3.91364 3.91364,-3.91364z" fill="#333333" stroke="null"/>
   <path id="path3176" d="m200,38.41075c89.21457,0 161.58925,72.37468 161.58925,161.58925c0.00002,89.21457 -72.37468,161.58925 -161.58925,161.58925c-89.21457,0 -161.58925,-72.37468 -161.58925,-161.58925c0,-89.21457 72.37468,-161.58925 161.58925,-161.58925z" fill="none" stroke-width="3.562" stroke="#000000"/>
   <use height="100%" width="100%" transform="matrix(-0.881947 0 0 -0.881947 332.71 354.55)" id="use3151" xlink:href="#path3193" y="0" x="-24.76314" stroke="null"/>
   <path id="path3193" d="m117.48282,200c0,-45.55383 36.96335,-82.54474 82.51718,-82.54474l0,-77.47354c-88.32574,0 -160.01829,71.69253 -160.01828,160.01828l77.5011,0z" fill="url(#radialGradient3328)" stroke="null"/>
   <path id="path3215" d="m200,140.63393c32.77934,0 59.36606,26.58672 59.36606,59.36606c0,32.77934 -26.58673,59.36778 -59.36606,59.36778c-32.77934,0 -59.36778,-26.58845 -59.36778,-59.36778c0,-32.77935 26.58845,-59.36606 59.36778,-59.36606z" fill="none" stroke-width="3" stroke="#000000"/>
   <path id="path3223" d="m233.48118,166.51882c-18.4791,-18.47908 -48.48327,-18.47909 -66.96236,0c-18.47908,18.4791 -18.47908,48.48327 0,66.96235c18.4791,18.47908 48.48327,18.47909 66.96236,0c18.47908,-18.47909 18.47908,-48.48326 0,-66.96235zm-30.24609,30.24609c1.7876,1.78761 1.7876,4.68256 0,6.47017c-1.78761,1.78761 -4.68256,1.7876 -6.47018,0c-1.7876,-1.7876 -1.7876,-4.68256 0,-6.47017c1.78761,-1.7876 4.68256,-1.7876 6.47018,0z" fill="url(#radialGradient3349)" stroke="null"/>
   <path id="path3230" d="m238.76255,161.23745c-6.22811,-6.2281 -13.58743,-10.63042 -21.41782,-13.23266l-1.09136,3.27406c7.33367,2.43809 14.221,6.58152 20.05362,12.41415c7.1052,7.1052 11.69104,15.77303 13.75886,24.90626l3.3715,-0.76004c-2.20668,-9.75044 -7.08875,-19.01569 -14.67481,-26.60176l0.00001,-0.00001z" opacity="0.74257" fill="#ffffff" stroke="null"/>
   <path id="path3232" d="m149.38846,191.40559l-3.42996,-0.58465c-2.855,16.90969 2.2388,34.90147 15.27895,47.94162c13.00515,13.00513 30.93515,18.1032 47.8052,15.29844l-0.56517,-3.41048c-15.809,2.63162 -32.59838,-2.15741 -44.78448,-14.34351c-12.21698,-12.21698 -16.98046,-29.05746 -14.30454,-44.90142z" opacity="0.74257" fill="#ffffff" stroke="null"/>
  </g>
 </g>
</svg>